<svg xmlns="http://www.w3.org/2000/svg"  viewBox="0 0 24 24" width="480px" height="480px"><path d="M 2 14.769531 C 2 9.433594 6.980469 4.117188 11.65625 3 C 11.65625 3 9.585938 4.644531 9.585938 5.769531 C 9.585938 8.019531 10.964844 7.152344 10.964844 7.152344 C 10.964844 7.152344 10.964844 15.574219 10.964844 16.152344 C 10.964844 16.734375 11.585938 16.847656 12.34375 16.847656 C 13.101563 16.847656 14.414063 15.917969 14.414063 15.917969 C 14.414063 15.917969 14.414063 9.335938 14.414063 8.539063 C 14.414063 7.742188 13.472656 6.839844 13.035156 6.460938 C 14.203125 6.460938 15.101563 7.152344 15.101563 7.152344 C 15.101563 7.152344 15.992188 5.421875 19.929688 4.386719 C 19.332031 5.148438 17.882813 7.195313 17.882813 7.886719 C 17.882813 8.574219 17.863281 15.320313 17.863281 15.71875 C 17.863281 16.117188 18.332031 16.152344 18.621094 16.152344 C 18.910156 16.152344 20.503906 15.734375 22 14.078125 C 22 14.582031 19.507813 18.339844 16.484375 20.308594 L 14.414063 18.230469 L 12.34375 21 C 12.34375 21 8.109375 20.492188 6.136719 17.539063 C 6.671875 17.617188 7.515625 17.679688 7.515625 16.847656 C 7.515625 16.011719 7.515625 10.46875 7.515625 9.921875 C 7.515625 9.378906 7.265625 9.125 6.792969 9.125 C 6.324219 9.125 4.542969 10.265625 2 14.769531 Z"/></svg>